<?xml version="1.0" encoding="UTF-8"?>
<svg id="Layer_2" data-name="Layer 2" xmlns="http://www.w3.org/2000/svg" viewBox="0 0 145.1 81.44">
  <defs>
    <style>
      .cls-1 {
        fill: #f4eee7;
      }

      .cls-2 {
        fill: #e4058c;
      }

      .cls-3 {
        isolation: isolate;
      }
    </style>
  </defs>
  <g id="Layer_2-2" data-name="Layer 2">
    <circle class="cls-1" cx="72.58" cy="40.72" r="40.72"/>
    <g class="cls-3">
      <path class="cls-2" d="M70.95,36.75s-10.07-3.83-10.07-14.83c0,0,10.07,2.73,10.07,14.83-1.37-5.44-5.04-11.26-8.58-12.71,0,0-.04,7.52,8.58,12.71Z"/>
      <path class="cls-2" d="M72.47,38.33s-8.35-7.81-17.98-1.35c0,0,7.38,8.45,17.98,1.35-5.45,1.83-12.36,1.58-15.39-1.1,0,0,6.57-4.46,15.39,1.1Z"/>
      <path class="cls-2" d="M73.03,38.66s8.35-7.81,17.98-1.35c0,0-7.38,8.45-17.98,1.35,5.45,1.83,12.36,1.58,15.39-1.1,0,0-6.57-4.46-15.39,1.1Z"/>
      <path class="cls-2" d="M74.73,36.75s10.07-3.83,10.07-14.83c0,0-10.07,2.73-10.07,14.83,1.37-5.44,5.04-11.26,8.58-12.71,0,0,.04,7.52-8.58,12.71Z"/>
      <path class="cls-2" d="M72.62,38.55s-6.77-9.96.4-20.51c0,0,7.48,8.91-.4,20.51,2.29-6.07,2.71-13.94.4-17.55,0,0-4.94,7.18-.4,17.55Z"/>
      <circle class="cls-2" cx="72.32" cy="40.81" r="1.21"/>
      <path class="cls-2" d="M73.98,47.35c-1.32-1.52-1.06-5.2,5.28-5.15,5.28.04,5.54,1.92,11.44,1.8s9.73-2.78,9.73-4.4c0-1.12-.64-1.81-1.37-1.81-.66,0-1.67.76-1.67.76,0,0,.34-.27,1.11-.25s.82.58.82.86c0,1.32-4.34,3.6-11.85,3.6-4.54,0-5.94-1.59-9.82-1.59s-5.11,2.46-5.11,3.71.63,2.47,1.44,2.47Z"/>
      <path class="cls-2" d="M71.19,47.35c1.32-1.52,1.06-5.2-5.28-5.15-5.28.04-5.54,1.92-11.44,1.8-6.07-.12-9.73-2.78-9.73-4.4,0-1.12.64-1.81,1.37-1.81.66,0,1.67.76,1.67.76,0,0-.34-.27-1.11-.25s-.82.58-.82.86c0,1.32,4.34,3.6,11.85,3.6,4.54,0,5.94-1.59,9.82-1.59s5.11,2.46,5.11,3.71-.63,2.47-1.44,2.47Z"/>
    </g>
    <g>
      <path d="M5.65,58.48l2.66-7.44c.09-.25.2-.44.33-.55.13-.11.31-.17.54-.17.19,0,.35.07.48.21s.21.31.23.51l1.27,9.44s.01.09.02.19c.01.09.02.18.04.27.01.08.02.16.02.24,0,.19-.05.34-.16.46s-.24.17-.4.17c-.37,0-.58-.18-.63-.55l-1.1-8.55h-.08s-2.46,6.96-2.46,6.96c-.15.42-.41.63-.79.63s-.64-.21-.79-.63l-2.46-6.97h-.08l-1.1,8.55c-.05.37-.26.55-.63.55-.16,0-.29-.06-.4-.17-.11-.12-.16-.27-.16-.46,0-.07,0-.16.02-.25.01-.09.02-.18.04-.28.01-.1.02-.17.03-.2l1.27-9.41c.02-.2.1-.37.23-.51.13-.14.29-.21.48-.21.23,0,.41.06.53.17.12.11.23.29.33.55l2.66,7.44h.08Z"/>
      <path d="M13.66,51.85c-.14-.15-.21-.34-.21-.57s.07-.42.21-.57.31-.22.51-.22.37.07.51.22.21.34.21.57-.07.42-.21.57c-.14.15-.31.22-.51.22s-.37-.07-.51-.22ZM14.72,54.13v7.12c0,.16-.05.29-.16.4s-.24.16-.4.16-.29-.05-.4-.16-.16-.24-.16-.4v-7.12c0-.16.05-.29.16-.4s.24-.16.4-.16.29.05.4.16.16.24.16.4Z"/>
      <path d="M22.4,61.25v-4.59c0-.69-.17-1.23-.5-1.62-.33-.4-.75-.59-1.24-.59-.53,0-.98.21-1.35.62-.37.41-.55.94-.55,1.6v4.59c0,.16-.05.29-.16.4s-.24.16-.4.16-.29-.05-.4-.16-.16-.24-.16-.4v-7.12c0-.16.05-.29.16-.4s.24-.16.4-.16.29.05.4.16.16.24.16.4v.32h.08s.03-.07.06-.11c.03-.04.09-.12.2-.25s.22-.23.35-.32c.13-.09.3-.17.51-.25.22-.07.45-.11.7-.11.81,0,1.49.3,2.03.89.54.6.81,1.38.81,2.35v4.59c0,.16-.05.29-.16.4s-.24.16-.4.16-.29-.05-.4-.16-.16-.24-.16-.4Z"/>
      <path d="M31.98,50.88v10.37c0,.16-.05.29-.16.4-.11.11-.24.16-.4.16s-.29-.05-.4-.16c-.11-.11-.16-.24-.16-.4v-.32h-.08s-.03.07-.06.11c-.03.04-.09.12-.2.25-.11.12-.22.23-.35.32-.13.09-.3.17-.51.25-.22.07-.45.11-.7.11-.85,0-1.57-.31-2.15-.94s-.86-1.45-.86-2.46v-1.74c0-1.01.29-1.83.86-2.46s1.29-.94,2.15-.94c.35,0,.68.08.98.24s.52.32.65.47l.19.24h.08v-3.48c0-.16.05-.29.16-.4.1-.11.24-.16.4-.16s.29.05.4.16c.11.11.16.24.16.4ZM28.97,60.94c.53,0,.98-.21,1.35-.62.37-.41.55-.94.55-1.6v-1.9c0-.73-.18-1.31-.55-1.73-.36-.43-.82-.64-1.35-.64s-.99.21-1.35.64c-.36.43-.55,1.01-.55,1.73v1.74c0,.73.18,1.31.55,1.73.36.43.82.64,1.35.64Z"/>
      <path d="M37.05,60.94c.62,0,1.09-.14,1.42-.43.32-.29.48-.67.48-1.16,0-.31-.16-.55-.47-.74-.31-.18-.68-.34-1.11-.47-.43-.13-.87-.26-1.32-.4s-.83-.37-1.14-.7c-.31-.33-.47-.75-.47-1.26,0-.64.26-1.2.77-1.67.51-.47,1.15-.7,1.92-.7.71,0,1.33.22,1.88.67s.82.88.82,1.31c0,.15-.04.26-.13.35s-.2.13-.35.13c-.23,0-.42-.11-.55-.32-.01-.02-.06-.09-.13-.21s-.13-.19-.17-.23c-.03-.04-.09-.1-.17-.2s-.15-.16-.22-.2c-.07-.04-.15-.08-.25-.13s-.21-.09-.33-.11c-.12-.02-.25-.03-.39-.03-.46,0-.84.13-1.14.39-.3.26-.44.58-.44.94,0,.3.16.55.47.73s.68.34,1.12.47c.43.13.87.26,1.32.4.45.14.83.37,1.14.71s.46.76.46,1.27c0,.81-.26,1.45-.78,1.92-.52.46-1.26.7-2.23.7-.74,0-1.41-.25-2.02-.74s-.91-.96-.91-1.39c0-.16.05-.29.16-.4s.24-.16.4-.16c.22,0,.4.13.54.4.41.84,1.02,1.27,1.84,1.27Z"/>
      <path d="M42.19,64.5v-10.37c0-.16.05-.29.16-.4s.24-.16.4-.16.29.05.4.16.16.24.16.4v.32h.08s.03-.07.06-.11c.03-.04.09-.12.2-.25s.22-.23.35-.32c.13-.09.3-.17.51-.25.22-.07.45-.11.7-.11.85,0,1.57.31,2.15.94.57.63.86,1.45.86,2.46v1.74c0,1.01-.29,1.83-.86,2.46-.58.63-1.29.94-2.15.94-.35,0-.68-.08-.98-.24s-.52-.32-.65-.47l-.19-.24h-.08v3.48c0,.16-.05.29-.16.4s-.24.16-.4.16-.29-.05-.4-.16-.16-.24-.16-.4ZM45.2,54.45c-.53,0-.98.21-1.35.62-.37.41-.55.94-.55,1.6v1.9c0,.73.18,1.31.55,1.73s.82.64,1.35.64.99-.21,1.35-.64c.36-.43.55-1.01.55-1.73v-1.74c0-.73-.18-1.31-.55-1.73-.36-.43-.81-.64-1.35-.64Z"/>
      <path d="M53.11,53.42c.8,0,1.45.27,1.95.8s.74,1.27.74,2.21v4.83c0,.16-.05.29-.16.4s-.24.16-.4.16-.29-.05-.4-.16c-.11-.11-.16-.24-.16-.4v-.32h-.08s-.03.07-.06.11-.09.12-.2.25c-.11.12-.22.23-.36.32-.13.09-.31.17-.55.25-.23.07-.48.11-.74.11-.82,0-1.48-.23-1.96-.7-.49-.46-.73-1.08-.73-1.84s.25-1.38.75-1.84c.5-.46,1.2-.69,2.1-.69h1.82v-.47c0-.65-.14-1.15-.42-1.48-.28-.33-.67-.5-1.16-.5-.15,0-.29.02-.43.06-.14.04-.25.08-.32.11s-.17.1-.28.21c-.11.11-.17.18-.2.21-.03.03-.09.12-.2.27-.11.15-.16.23-.16.24-.14.21-.32.32-.55.32-.14,0-.25-.04-.34-.13-.09-.08-.13-.2-.13-.35,0-.43.27-.87.8-1.31.53-.44,1.14-.67,1.81-.67ZM52.72,60.94c.57,0,1.04-.2,1.42-.61.37-.41.56-.94.56-1.61v-.79h-1.82c-1.11,0-1.66.5-1.66,1.5,0,.48.13.84.4,1.11s.63.4,1.11.4Z"/>
      <path d="M61.35,61.96c-.89,0-1.62-.31-2.21-.94-.59-.63-.88-1.45-.88-2.46v-1.74c0-1.01.29-1.83.88-2.46.59-.63,1.32-.94,2.21-.94.71,0,1.33.22,1.88.67.54.44.82.88.82,1.31,0,.15-.04.26-.13.35-.08.08-.2.13-.35.13-.23,0-.42-.11-.55-.32-.01-.02-.06-.09-.13-.21-.08-.12-.13-.19-.17-.23s-.09-.1-.17-.2-.15-.16-.22-.2c-.07-.04-.15-.08-.25-.13-.1-.05-.21-.09-.33-.11-.12-.02-.25-.03-.39-.03-.57,0-1.04.21-1.42.64-.38.43-.56,1.01-.56,1.73v1.74c0,.73.19,1.31.56,1.73.37.43.85.64,1.42.64.81,0,1.42-.42,1.84-1.27.13-.26.31-.4.54-.4.16,0,.29.05.4.16.11.11.16.24.16.4,0,.43-.3.9-.91,1.39-.61.5-1.28.74-2.02.74Z"/>
      <path d="M69.03,61.96c-.85,0-1.57-.31-2.15-.94s-.86-1.45-.86-2.46v-1.74c0-1.01.29-1.83.86-2.46s1.29-.94,2.15-.94,1.57.31,2.15.94.86,1.45.86,2.46v.87c0,.16-.05.29-.16.4-.11.11-.24.16-.4.16h-4.35v.32c0,.73.18,1.31.55,1.73.36.43.82.64,1.35.64.81,0,1.42-.42,1.84-1.27.14-.26.32-.4.54-.4.16,0,.29.05.4.16.1.11.16.24.16.4,0,.43-.3.9-.91,1.39-.61.5-1.28.74-2.02.74ZM67.13,56.82v.4h3.8v-.4c0-.73-.18-1.31-.55-1.73-.36-.43-.82-.64-1.35-.64s-.99.21-1.35.64c-.36.43-.55,1.01-.55,1.73Z"/>
      <path d="M84.14,61.17l-2.37-4.04h-2.53v4.04c0,.42-.21.63-.63.63-.16,0-.29-.06-.4-.17s-.16-.27-.16-.46v-9.9c0-.19.05-.34.16-.46s.24-.17.4-.17h3.09c1.07,0,1.9.29,2.5.88s.9,1.38.9,2.37c0,.45-.07.87-.21,1.24-.14.38-.3.67-.5.88s-.39.39-.58.53c-.19.14-.35.23-.49.28l-.21.08v.08s1.97,3.32,1.97,3.32c.03.05.08.13.14.24.06.1.11.18.13.22.03.04.05.11.08.19.03.08.04.15.04.23,0,.19-.05.34-.16.46s-.24.17-.4.17c-.06,0-.12,0-.18-.02-.06-.01-.11-.03-.16-.07-.05-.04-.09-.07-.12-.09-.03-.02-.07-.06-.11-.11-.04-.05-.07-.09-.09-.11-.02-.02-.04-.06-.08-.13-.04-.06-.06-.1-.06-.11ZM81.69,51.75h-2.45v4.27h2.45c.71,0,1.25-.19,1.64-.56.38-.37.58-.9.58-1.58s-.19-1.2-.58-1.58c-.39-.37-.93-.56-1.64-.56Z"/>
      <path d="M90.08,61.96c-.86,0-1.57-.31-2.15-.94s-.86-1.45-.86-2.46v-1.74c0-1.01.29-1.83.86-2.46s1.29-.94,2.15-.94,1.57.31,2.14.94.86,1.45.86,2.46v.87c0,.16-.05.29-.16.4-.11.11-.24.16-.4.16h-4.35v.32c0,.73.18,1.31.55,1.73s.82.64,1.35.64c.81,0,1.42-.42,1.84-1.27.14-.26.32-.4.54-.4.16,0,.29.05.4.16s.16.24.16.4c0,.43-.3.9-.91,1.39-.61.5-1.28.74-2.02.74ZM88.18,56.82v.4h3.8v-.4c0-.73-.18-1.31-.55-1.73-.36-.43-.82-.64-1.35-.64s-.99.21-1.35.64c-.36.43-.55,1.01-.55,1.73Z"/>
      <path d="M97.68,60.94c.62,0,1.1-.14,1.42-.43.32-.29.48-.67.48-1.16,0-.31-.16-.55-.47-.74s-.68-.34-1.11-.47c-.43-.13-.87-.26-1.32-.4-.45-.13-.83-.37-1.14-.7-.31-.33-.47-.75-.47-1.26,0-.64.25-1.2.77-1.67.51-.47,1.15-.7,1.92-.7.71,0,1.33.22,1.88.67.54.44.81.88.81,1.31,0,.15-.04.26-.13.35s-.2.13-.35.13c-.23,0-.42-.11-.55-.32-.01-.02-.06-.09-.13-.21s-.13-.19-.17-.23c-.03-.04-.09-.1-.17-.2-.08-.09-.15-.16-.22-.2-.07-.04-.15-.08-.25-.13s-.21-.09-.33-.11c-.12-.02-.25-.03-.39-.03-.46,0-.84.13-1.14.39-.29.26-.44.58-.44.94,0,.3.16.55.47.73.31.18.68.34,1.12.47s.87.26,1.32.4c.45.14.83.37,1.14.71.31.33.47.76.47,1.27,0,.81-.26,1.45-.78,1.92-.52.46-1.26.7-2.23.7-.74,0-1.41-.25-2.02-.74-.61-.5-.91-.96-.91-1.39,0-.16.05-.29.16-.4s.24-.16.4-.16c.22,0,.4.13.54.4.41.84,1.02,1.27,1.84,1.27Z"/>
      <path d="M102.87,51.85c-.14-.15-.21-.34-.21-.57s.07-.42.21-.57c.14-.15.31-.22.51-.22s.37.07.51.22.21.34.21.57-.07.42-.21.57c-.14.15-.31.22-.51.22s-.37-.07-.51-.22ZM103.93,54.13v7.12c0,.16-.05.29-.16.4-.11.11-.24.16-.4.16s-.29-.05-.4-.16-.16-.24-.16-.4v-7.12c0-.16.05-.29.16-.4s.24-.16.4-.16.29.05.4.16c.11.11.16.24.16.4Z"/>
      <path d="M107.97,50.88v10.37c0,.16-.05.29-.16.4-.11.11-.24.16-.4.16s-.29-.05-.4-.16-.16-.24-.16-.4v-10.37c0-.16.05-.29.16-.4s.24-.16.4-.16.29.05.4.16c.11.11.16.24.16.4Z"/>
      <path d="M110.95,51.85c-.14-.15-.21-.34-.21-.57s.07-.42.21-.57c.14-.15.31-.22.51-.22s.37.07.51.22.21.34.21.57-.07.42-.21.57c-.14.15-.31.22-.51.22s-.37-.07-.51-.22ZM112.01,54.13v7.12c0,.16-.05.29-.16.4-.11.11-.24.16-.4.16s-.29-.05-.4-.16-.16-.24-.16-.4v-7.12c0-.16.05-.29.16-.4s.24-.16.4-.16.29.05.4.16c.11.11.16.24.16.4Z"/>
      <path d="M117.55,61.96c-.86,0-1.57-.31-2.15-.94s-.86-1.45-.86-2.46v-1.74c0-1.01.29-1.83.86-2.46s1.29-.94,2.15-.94,1.57.31,2.14.94.86,1.45.86,2.46v.87c0,.16-.05.29-.16.4-.11.11-.24.16-.4.16h-4.35v.32c0,.73.18,1.31.55,1.73s.82.64,1.35.64c.81,0,1.42-.42,1.84-1.27.14-.26.32-.4.54-.4.16,0,.29.05.4.16s.16.24.16.4c0,.43-.3.9-.91,1.39-.61.5-1.28.74-2.02.74ZM115.65,56.82v.4h3.8v-.4c0-.73-.18-1.31-.55-1.73-.36-.43-.82-.64-1.35-.64s-.99.21-1.35.64c-.36.43-.55,1.01-.55,1.73Z"/>
      <path d="M127.76,61.25v-4.59c0-.69-.17-1.23-.5-1.62-.33-.4-.75-.59-1.24-.59-.53,0-.98.21-1.35.62-.37.41-.55.94-.55,1.6v4.59c0,.16-.05.29-.16.4-.11.11-.24.16-.4.16s-.29-.05-.4-.16-.16-.24-.16-.4v-7.12c0-.16.05-.29.16-.4s.24-.16.4-.16.29.05.4.16c.11.11.16.24.16.4v.32h.08s.03-.07.06-.11c.03-.04.09-.12.2-.25s.22-.23.35-.32.3-.17.51-.25c.22-.07.45-.11.7-.11.81,0,1.49.3,2.03.89.54.6.82,1.38.82,2.35v4.59c0,.16-.05.29-.16.4s-.24.16-.4.16-.29-.05-.4-.16-.16-.24-.16-.4Z"/>
      <path d="M134.41,61.96c-.89,0-1.62-.31-2.21-.94-.58-.63-.88-1.45-.88-2.46v-1.74c0-1.01.29-1.83.88-2.46.59-.63,1.32-.94,2.21-.94.71,0,1.33.22,1.88.67.54.44.82.88.82,1.31,0,.15-.04.26-.13.35-.08.08-.2.13-.35.13-.23,0-.42-.11-.55-.32-.01-.02-.06-.09-.13-.21s-.13-.19-.17-.23-.09-.1-.17-.2-.15-.16-.22-.2c-.07-.04-.15-.08-.25-.13-.1-.05-.21-.09-.33-.11-.12-.02-.25-.03-.39-.03-.57,0-1.04.21-1.42.64-.38.43-.56,1.01-.56,1.73v1.74c0,.73.19,1.31.56,1.73.37.43.85.64,1.42.64.81,0,1.42-.42,1.84-1.27.13-.26.31-.4.54-.4.16,0,.29.05.4.16s.16.24.16.4c0,.43-.3.9-.91,1.39-.61.5-1.28.74-2.02.74Z"/>
      <path d="M142.09,61.96c-.86,0-1.57-.31-2.15-.94s-.86-1.45-.86-2.46v-1.74c0-1.01.29-1.83.86-2.46s1.29-.94,2.15-.94,1.57.31,2.14.94.86,1.45.86,2.46v.87c0,.16-.05.29-.16.4-.11.11-.24.16-.4.16h-4.35v.32c0,.73.18,1.31.55,1.73s.82.64,1.35.64c.81,0,1.42-.42,1.84-1.27.14-.26.32-.4.54-.4.16,0,.29.05.4.16s.16.24.16.4c0,.43-.3.9-.91,1.39-.61.5-1.28.74-2.02.74ZM140.19,56.82v.4h3.8v-.4c0-.73-.18-1.31-.55-1.73-.36-.43-.82-.64-1.35-.64s-.99.21-1.35.64c-.36.43-.55,1.01-.55,1.73Z"/>
    </g>
  </g>
</svg>